<svg version="1.1" id="Layer_1" xmlns="http://www.w3.org/2000/svg" xmlns:xlink="http://www.w3.org/1999/xlink" x="0px" y="0px"
	 width="100%" viewBox="0 0 750 750" enable-background="new 0 0 750 750" xml:space="preserve">
<path fill="#FFD1D1" opacity="1.000000" stroke="none" 
	d="
M1.000000,295.000000 
	C1.000000,196.666672 1.000000,98.833336 1.000000,1.000000 
	C251.000000,1.000000 501.000000,1.000000 751.000000,1.000000 
	C751.000000,251.000000 751.000000,501.000000 751.000000,751.000000 
	C501.000000,751.000000 251.000000,751.000000 1.000000,751.000000 
	C1.000000,599.166687 1.000000,447.333344 1.000000,295.000000 
M259.500000,349.109375 
	C219.839035,349.109497 180.178055,349.088928 140.517105,349.118530 
	C121.040146,349.133057 107.892418,362.252411 107.887650,381.714874 
	C107.865654,471.368958 107.872955,561.023071 107.903091,650.677124 
	C107.903984,653.327881 107.962914,656.046570 108.524376,658.617981 
	C111.841560,673.810547 124.039566,683.118042 140.549179,683.119263 
	C297.027191,683.130920 453.505646,682.950806 609.982666,683.344604 
	C630.030823,683.395081 644.453857,668.636536 644.343262,649.143860 
	C643.840271,560.492432 643.856140,471.835236 644.330994,383.183594 
	C644.435303,363.705444 630.343811,348.885620 609.950439,348.944916 
	C493.467804,349.283630 376.983643,349.109375 259.500000,349.109375 
M540.426758,206.999496 
	C528.866577,175.653091 517.358521,144.287216 505.669434,112.988945 
	C504.432678,109.677376 505.072937,108.472054 508.400574,107.942162 
	C513.820679,107.079086 519.222473,106.077576 524.601074,104.982552 
	C533.020569,103.268440 532.829224,103.211060 533.006165,94.641136 
	C533.083008,90.918068 531.926880,89.718521 528.197998,89.738754 
	C504.371094,89.868011 480.542786,89.871643 456.715912,89.738159 
	C452.813141,89.716293 451.111023,90.974899 451.551086,94.917221 
	C451.698059,96.233879 451.652740,97.586067 451.560333,98.912598 
	C451.339966,102.076103 452.372223,103.719368 455.901123,104.155876 
	C461.166718,104.807205 466.324829,106.283859 471.573151,107.135109 
	C474.627747,107.630554 476.096741,109.183487 476.994385,112.079048 
	C478.764221,117.788101 481.187469,123.305016 482.761139,129.059814 
	C483.488373,131.719299 483.627350,135.026031 482.721191,137.572449 
	C470.238525,172.648438 457.509949,207.636841 444.889771,242.664047 
	C442.907440,248.166031 441.162292,253.753464 439.307465,259.301392 
	C438.818542,259.279449 438.329651,259.257477 437.840729,259.235535 
	C436.970245,256.282928 436.133118,253.320007 435.224243,250.379227 
	C421.137695,204.800186 407.122345,159.198730 392.825592,113.685669 
	C391.369263,109.049522 392.593262,107.834663 396.813324,107.232475 
	C403.062256,106.340744 409.299896,105.256142 415.444031,103.830078 
	C416.849304,103.503914 418.292053,101.633698 418.916046,100.139404 
	C419.509399,98.718552 418.902679,96.842575 419.089905,95.197006 
	C419.562012,91.047043 417.820923,89.653564 413.689117,89.732018 
	C402.529175,89.943893 391.362518,89.802887 380.198547,89.802917 
	C369.367828,89.802948 358.536194,89.882378 347.706909,89.757698 
	C344.434143,89.720024 342.538300,90.475945 343.053070,94.217125 
	C343.255585,95.688980 343.213837,97.224800 343.062042,98.708847 
	C342.725616,101.997681 344.111755,103.505997 347.391632,104.084663 
	C351.140686,104.746101 354.955383,105.606827 358.415039,107.124962 
	C360.518280,108.047890 362.951874,110.064545 363.629852,112.120010 
	C382.527039,169.410614 401.203705,226.773911 419.954071,284.113007 
	C424.424927,297.784973 424.487518,297.597687 438.845947,297.732208 
	C443.127350,297.772308 444.944092,296.168182 446.327332,292.290894 
	C453.586700,271.942291 461.268616,251.744385 468.520416,231.393188 
	C476.937225,207.772415 485.060455,184.047028 493.309998,160.366653 
	C493.522675,159.756134 493.722260,159.141052 493.927948,158.528107 
	C496.323669,162.968918 497.069702,166.859833 498.479828,170.492981 
	C513.095276,208.148285 527.764465,245.782928 542.536987,283.376862 
	C548.322632,298.100555 548.456665,297.917236 562.857849,297.722565 
	C566.442017,297.674133 567.875916,296.121643 568.762939,293.052948 
	C573.747498,275.807770 578.809998,258.585144 583.836914,241.352203 
	C595.381592,201.774994 607.549072,162.362228 618.078674,122.516685 
	C621.222412,110.620338 626.672119,104.863136 638.301941,104.208199 
	C641.896606,104.005760 642.786682,102.047638 642.625244,98.947456 
	C642.547485,97.451912 642.508972,95.940048 642.635010,94.451019 
	C642.929138,90.975548 641.366821,89.749313 637.951233,89.764404 
	C617.956421,89.852783 597.960815,89.851036 577.966003,89.765533 
	C574.665283,89.751427 573.431091,91.100685 573.669373,94.259987 
	C573.794373,95.916847 573.776611,97.596024 573.674438,99.255966 
	C573.485962,102.318237 574.743530,103.667793 577.903320,104.091331 
	C583.667297,104.863937 589.357605,106.171768 595.094971,107.161758 
	C601.632812,108.289886 601.696594,108.421425 599.963867,114.748589 
	C587.801819,159.159470 575.676147,203.580292 563.519409,247.992615 
	C562.546448,251.547318 561.427063,255.061951 560.375671,258.595215 
	C559.985046,258.547455 559.594360,258.499725 559.203735,258.451996 
	C553.060669,241.533249 546.917603,224.614502 540.426758,206.999496 
M192.485550,90.031479 
	C170.378067,90.031479 148.270584,90.031479 125.894333,90.031479 
	C125.894333,95.047707 125.894333,99.453804 125.894333,104.072586 
	C132.760117,105.337280 139.419571,107.026329 146.177383,107.650558 
	C150.893524,108.086189 151.805252,110.017830 151.784073,114.267029 
	C151.635513,144.089249 151.751480,173.912674 151.689911,203.735519 
	C151.653046,221.590958 152.314590,239.375122 156.967987,256.739197 
	C162.305679,276.656769 173.982925,290.630920 194.486954,296.233246 
	C212.993530,301.289764 231.664642,300.941772 250.449478,298.287933 
	C262.202179,296.627594 273.068390,292.740967 282.432190,285.351990 
	C297.209442,273.691284 303.007568,257.214752 304.707001,239.471939 
	C306.417664,221.611679 306.746552,203.589905 307.024017,185.628754 
	C307.389404,161.975952 307.213226,138.312408 307.015625,114.655617 
	C306.982544,110.695595 308.081207,108.988983 312.044342,108.536560 
	C316.157959,108.066956 320.210999,107.015137 324.268982,106.120316 
	C333.021851,104.190216 332.833984,104.161880 332.971619,95.023308 
	C333.030365,91.121765 331.893463,89.901672 327.900391,89.942741 
	C308.575806,90.141434 289.248077,90.031746 269.921448,90.031502 
	C259.227539,90.031372 259.318329,90.027840 259.758484,100.929337 
	C259.867645,103.631821 260.822510,104.735207 263.438629,105.174126 
	C269.177277,106.136902 274.832184,107.663803 280.592560,108.411011 
	C284.971252,108.979004 286.242706,110.872635 286.217529,115.218536 
	C286.040771,145.706909 286.496124,176.203522 285.946686,206.683044 
	C285.713989,219.591751 284.528015,232.660446 282.021393,245.308853 
	C278.393311,263.615997 267.504669,276.156097 247.956985,277.923035 
	C237.134689,278.901245 226.012115,278.684814 215.219345,277.388245 
	C196.726959,275.166687 185.409958,264.363708 182.563507,245.651581 
	C181.164627,236.455627 179.595764,227.174072 179.480423,217.914124 
	C179.042603,182.765259 179.201752,147.609207 179.024399,112.456398 
	C179.007706,109.150055 180.393326,108.309654 183.384659,107.879356 
	C190.593246,106.842400 197.741333,105.384789 204.779053,104.121025 
	C204.779053,99.231209 204.779053,94.841469 204.779053,90.031487 
	C200.754135,90.031487 197.115921,90.031487 192.485550,90.031479 
z"/>
<path fill="#940101" opacity="1.000000" stroke="none" 
	d="
M260.000000,349.109375 
	C376.983643,349.109375 493.467804,349.283630 609.950439,348.944916 
	C630.343811,348.885620 644.435303,363.705444 644.330994,383.183594 
	C643.856140,471.835236 643.840271,560.492432 644.343262,649.143860 
	C644.453857,668.636536 630.030823,683.395081 609.982666,683.344604 
	C453.505646,682.950806 297.027191,683.130920 140.549179,683.119263 
	C124.039566,683.118042 111.841560,673.810547 108.524376,658.617981 
	C107.962914,656.046570 107.903984,653.327881 107.903091,650.677124 
	C107.872955,561.023071 107.865654,471.368958 107.887650,381.714874 
	C107.892418,362.252411 121.040146,349.133057 140.517105,349.118530 
	C180.178055,349.088928 219.839035,349.109497 260.000000,349.109375 
M627.043396,606.125366 
	C627.059937,602.069275 627.076477,598.013123 627.643494,593.341187 
	C627.770081,591.359375 628.006775,589.377625 628.007385,587.395752 
	C628.026489,519.580750 627.816589,451.764618 628.198486,383.951752 
	C628.274292,370.486908 620.720886,364.905212 609.016846,364.923248 
	C500.213226,365.091125 391.409210,365.022461 282.605316,365.022522 
	C235.451401,365.022552 188.297485,365.011017 141.143570,365.031769 
	C130.121185,365.036621 123.990036,370.839569 123.988129,381.291412 
	C123.971657,471.433685 123.972382,561.575989 123.989738,651.718262 
	C123.991531,661.019836 129.976074,667.011169 139.273239,667.012024 
	C297.063904,667.026367 454.854553,667.026062 612.645203,667.012939 
	C621.985168,667.012207 627.980408,661.057007 628.009705,651.799866 
	C628.051941,638.470337 628.052002,625.140320 627.984009,611.810913 
	C627.975891,610.224731 627.428772,608.641357 627.043396,606.125366 
z"/>
<path fill="#940303" opacity="1.000000" stroke="none" 
	d="
M540.600647,207.347626 
	C546.917603,224.614502 553.060669,241.533249 559.203735,258.451996 
	C559.594360,258.499725 559.985046,258.547455 560.375671,258.595215 
	C561.427063,255.061951 562.546448,251.547318 563.519409,247.992615 
	C575.676147,203.580292 587.801819,159.159470 599.963867,114.748589 
	C601.696594,108.421425 601.632812,108.289886 595.094971,107.161758 
	C589.357605,106.171768 583.667297,104.863937 577.903320,104.091331 
	C574.743530,103.667793 573.485962,102.318237 573.674438,99.255966 
	C573.776611,97.596024 573.794373,95.916847 573.669373,94.259987 
	C573.431091,91.100685 574.665283,89.751427 577.966003,89.765533 
	C597.960815,89.851036 617.956421,89.852783 637.951233,89.764404 
	C641.366821,89.749313 642.929138,90.975548 642.635010,94.451019 
	C642.508972,95.940048 642.547485,97.451912 642.625244,98.947456 
	C642.786682,102.047638 641.896606,104.005760 638.301941,104.208199 
	C626.672119,104.863136 621.222412,110.620338 618.078674,122.516685 
	C607.549072,162.362228 595.381592,201.774994 583.836914,241.352203 
	C578.809998,258.585144 573.747498,275.807770 568.762939,293.052948 
	C567.875916,296.121643 566.442017,297.674133 562.857849,297.722565 
	C548.456665,297.917236 548.322632,298.100555 542.536987,283.376862 
	C527.764465,245.782928 513.095276,208.148285 498.479828,170.492981 
	C497.069702,166.859833 496.323669,162.968918 493.927948,158.528107 
	C493.722260,159.141052 493.522675,159.756134 493.309998,160.366653 
	C485.060455,184.047028 476.937225,207.772415 468.520416,231.393188 
	C461.268616,251.744385 453.586700,271.942291 446.327332,292.290894 
	C444.944092,296.168182 443.127350,297.772308 438.845947,297.732208 
	C424.487518,297.597687 424.424927,297.784973 419.954071,284.113007 
	C401.203705,226.773911 382.527039,169.410614 363.629852,112.120010 
	C362.951874,110.064545 360.518280,108.047890 358.415039,107.124962 
	C354.955383,105.606827 351.140686,104.746101 347.391632,104.084663 
	C344.111755,103.505997 342.725616,101.997681 343.062042,98.708847 
	C343.213837,97.224800 343.255585,95.688980 343.053070,94.217125 
	C342.538300,90.475945 344.434143,89.720024 347.706909,89.757698 
	C358.536194,89.882378 369.367828,89.802948 380.198547,89.802917 
	C391.362518,89.802887 402.529175,89.943893 413.689117,89.732018 
	C417.820923,89.653564 419.562012,91.047043 419.089905,95.197006 
	C418.902679,96.842575 419.509399,98.718552 418.916046,100.139404 
	C418.292053,101.633698 416.849304,103.503914 415.444031,103.830078 
	C409.299896,105.256142 403.062256,106.340744 396.813324,107.232475 
	C392.593262,107.834663 391.369263,109.049522 392.825592,113.685669 
	C407.122345,159.198730 421.137695,204.800186 435.224243,250.379227 
	C436.133118,253.320007 436.970245,256.282928 437.840729,259.235535 
	C438.329651,259.257477 438.818542,259.279449 439.307465,259.301392 
	C441.162292,253.753464 442.907440,248.166031 444.889771,242.664047 
	C457.509949,207.636841 470.238525,172.648438 482.721191,137.572449 
	C483.627350,135.026031 483.488373,131.719299 482.761139,129.059814 
	C481.187469,123.305016 478.764221,117.788101 476.994385,112.079048 
	C476.096741,109.183487 474.627747,107.630554 471.573151,107.135109 
	C466.324829,106.283859 461.166718,104.807205 455.901123,104.155876 
	C452.372223,103.719368 451.339966,102.076103 451.560333,98.912598 
	C451.652740,97.586067 451.698059,96.233879 451.551086,94.917221 
	C451.111023,90.974899 452.813141,89.716293 456.715912,89.738159 
	C480.542786,89.871643 504.371094,89.868011 528.197998,89.738754 
	C531.926880,89.718521 533.083008,90.918068 533.006165,94.641136 
	C532.829224,103.211060 533.020569,103.268440 524.601074,104.982552 
	C519.222473,106.077576 513.820679,107.079086 508.400574,107.942162 
	C505.072937,108.472054 504.432678,109.677376 505.669434,112.988945 
	C517.358521,144.287216 528.866577,175.653091 540.600647,207.347626 
z"/>
<path fill="#940202" opacity="1.000000" stroke="none" 
	d="
M192.981628,90.031479 
	C197.115921,90.031487 200.754135,90.031487 204.779053,90.031487 
	C204.779053,94.841469 204.779053,99.231209 204.779053,104.121025 
	C197.741333,105.384789 190.593246,106.842400 183.384659,107.879356 
	C180.393326,108.309654 179.007706,109.150055 179.024399,112.456398 
	C179.201752,147.609207 179.042603,182.765259 179.480423,217.914124 
	C179.595764,227.174072 181.164627,236.455627 182.563507,245.651581 
	C185.409958,264.363708 196.726959,275.166687 215.219345,277.388245 
	C226.012115,278.684814 237.134689,278.901245 247.956985,277.923035 
	C267.504669,276.156097 278.393311,263.615997 282.021393,245.308853 
	C284.528015,232.660446 285.713989,219.591751 285.946686,206.683044 
	C286.496124,176.203522 286.040771,145.706909 286.217529,115.218536 
	C286.242706,110.872635 284.971252,108.979004 280.592560,108.411011 
	C274.832184,107.663803 269.177277,106.136902 263.438629,105.174126 
	C260.822510,104.735207 259.867645,103.631821 259.758484,100.929337 
	C259.318329,90.027840 259.227539,90.031372 269.921448,90.031502 
	C289.248077,90.031746 308.575806,90.141434 327.900391,89.942741 
	C331.893463,89.901672 333.030365,91.121765 332.971619,95.023308 
	C332.833984,104.161880 333.021851,104.190216 324.268982,106.120316 
	C320.210999,107.015137 316.157959,108.066956 312.044342,108.536560 
	C308.081207,108.988983 306.982544,110.695595 307.015625,114.655617 
	C307.213226,138.312408 307.389404,161.975952 307.024017,185.628754 
	C306.746552,203.589905 306.417664,221.611679 304.707001,239.471939 
	C303.007568,257.214752 297.209442,273.691284 282.432190,285.351990 
	C273.068390,292.740967 262.202179,296.627594 250.449478,298.287933 
	C231.664642,300.941772 212.993530,301.289764 194.486954,296.233246 
	C173.982925,290.630920 162.305679,276.656769 156.967987,256.739197 
	C152.314590,239.375122 151.653046,221.590958 151.689911,203.735519 
	C151.751480,173.912674 151.635513,144.089249 151.784073,114.267029 
	C151.805252,110.017830 150.893524,108.086189 146.177383,107.650558 
	C139.419571,107.026329 132.760117,105.337280 125.894333,104.072586 
	C125.894333,99.453804 125.894333,95.047707 125.894333,90.031479 
	C148.270584,90.031479 170.378067,90.031479 192.981628,90.031479 
z"/>
<path fill="#D40000" opacity="1.000000" stroke="none" 
	d="
M627.131470,607.056641 
	C627.428772,608.641357 627.975891,610.224731 627.984009,611.810913 
	C628.052002,625.140320 628.051941,638.470337 628.009705,651.799866 
	C627.980408,661.057007 621.985168,667.012207 612.645203,667.012939 
	C454.854553,667.026062 297.063904,667.026367 139.273239,667.012024 
	C129.976074,667.011169 123.991531,661.019836 123.989738,651.718262 
	C123.972382,561.575989 123.971657,471.433685 123.988129,381.291412 
	C123.990036,370.839569 130.121185,365.036621 141.143570,365.031769 
	C188.297485,365.011017 235.451401,365.022552 282.605316,365.022522 
	C391.409210,365.022461 500.213226,365.091125 609.016846,364.923248 
	C620.720886,364.905212 628.274292,370.486908 628.198486,383.951752 
	C627.816589,451.764618 628.026489,519.580750 628.007385,587.395752 
	C628.006775,589.377625 627.770081,591.359375 627.280518,593.286499 
	C620.522949,574.953674 608.477051,566.871155 589.380615,569.130005 
	C573.043335,571.062439 560.696899,587.756287 563.192688,604.839905 
	C565.838196,622.948486 583.355835,637.185791 603.017822,632.016418 
	C616.029114,628.595642 623.679871,619.808044 627.131470,607.056641 
M166.227325,599.630493 
	C173.242065,607.694092 181.052994,614.770691 191.280533,619.917664 
	C200.520340,622.942566 209.760132,625.967407 219.758270,629.337097 
	C227.839340,629.568298 235.920410,629.799561 244.932251,630.154053 
	C253.955353,630.113037 262.978455,630.072021 272.932770,630.148376 
	C281.289032,630.108337 289.645325,630.068359 298.933411,630.141541 
	C307.622650,630.104187 316.311859,630.066833 325.933411,630.136292 
	C334.289429,630.100769 342.645477,630.065247 351.934204,630.133301 
	C360.623138,630.098022 369.312073,630.062744 378.934174,630.124817 
	C386.956604,630.093506 394.979034,630.062134 403.934967,630.125183 
	C413.290344,630.092224 422.645752,630.059326 432.934875,630.116272 
	C441.288635,630.026306 449.642395,629.936401 458.826569,629.929504 
	C467.216583,627.585022 475.606628,625.240540 484.720306,622.918762 
	C493.892517,619.238586 502.011475,613.960510 509.576660,606.653076 
	C515.403625,599.027527 522.018250,591.868286 526.873169,583.667297 
	C534.192505,571.303650 537.078430,557.394897 536.959534,543.016846 
	C536.746399,517.252563 537.454712,491.411713 535.657532,465.751373 
	C534.245361,445.587708 524.381714,428.424500 508.754517,414.212372 
	C500.500519,408.883698 492.246521,403.555023 483.247681,398.055389 
	C475.165405,396.030792 467.083130,394.006226 458.191040,391.782959 
	C449.456573,391.611755 440.722076,391.440552 431.060974,391.138397 
	C421.705688,391.183044 412.350433,391.227692 402.067230,391.128754 
	C394.041046,391.178314 386.014862,391.227905 377.062469,391.141907 
	C368.372772,391.187653 359.683075,391.233429 350.066223,391.135284 
	C341.706543,391.185028 333.346893,391.234802 324.061737,391.145264 
	C315.372742,391.192108 306.683746,391.238953 297.067780,391.139496 
	C288.707306,391.189819 280.346802,391.240143 271.061371,391.148743 
	C262.039032,391.195984 253.016708,391.243256 243.068237,391.142365 
	C235.022583,391.592712 226.976944,392.043030 218.081161,392.561035 
	C209.055374,395.711212 200.029602,398.861359 190.325394,402.162964 
	C182.837280,408.264587 175.349152,414.366180 167.253769,420.836029 
	C154.729050,434.603271 146.956879,450.919525 146.250473,469.304230 
	C145.196899,496.723877 145.238235,524.239197 146.213333,551.664062 
	C146.846283,569.465820 153.818115,585.550781 166.227325,599.630493 
M626.964783,506.500000 
	C626.964783,472.076294 626.964783,437.652588 626.964783,403.245056 
	C605.345276,403.245056 584.455505,403.245056 563.420776,403.245056 
	C563.420776,450.208771 563.420776,496.782593 563.420776,543.605530 
	C584.598755,543.605530 605.499207,543.605530 626.283997,543.605530 
	C626.554749,543.055359 626.817078,542.770081 626.818665,542.483276 
	C626.882019,530.822266 626.921936,519.161133 626.964783,506.500000 
z"/>
<path fill="#060303" opacity="1.000000" stroke="none" 
	d="
M627.087402,606.591003 
	C623.679871,619.808044 616.029114,628.595642 603.017822,632.016418 
	C583.355835,637.185791 565.838196,622.948486 563.192688,604.839905 
	C560.696899,587.756287 573.043335,571.062439 589.380615,569.130005 
	C608.477051,566.871155 620.522949,574.953674 627.005249,593.594360 
	C627.076477,598.013123 627.059937,602.069275 627.087402,606.591003 
M602.148376,626.981995 
	C619.837219,621.462219 625.061157,607.150940 621.126038,592.288818 
	C617.374451,578.120056 602.422485,570.956665 587.769287,574.648499 
	C576.484985,577.491699 564.699585,592.085999 569.099487,607.511963 
	C573.167603,621.774902 587.243286,630.763184 602.148376,626.981995 
z"/>
<path fill="#935941" opacity="1.000000" stroke="none" 
	d="
M402.995148,391.272339 
	C412.350433,391.227692 421.705688,391.183044 431.527985,391.649048 
	C431.997040,471.448578 431.999084,550.737488 432.001129,630.026367 
	C422.645752,630.059326 413.290344,630.092224 403.467712,629.606445 
	C402.998718,549.815857 402.996918,470.544098 402.995148,391.272339 
z"/>
<path fill="#6B544A" opacity="1.000000" stroke="none" 
	d="
M272.001556,630.031006 
	C262.978455,630.072021 253.955353,630.113037 244.466385,629.620972 
	C243.998474,549.822144 243.996414,470.556305 243.994370,391.290497 
	C253.016708,391.243256 262.039032,391.195984 271.527588,391.665131 
	C271.996399,471.464691 271.998993,550.747864 272.001556,630.031006 
z"/>
<path fill="#795647" opacity="1.000000" stroke="none" 
	d="
M297.994751,391.285797 
	C306.683746,391.238953 315.372742,391.192108 324.528137,391.660187 
	C324.996704,471.459900 324.998901,550.744690 325.001099,630.029480 
	C316.311859,630.066833 307.622650,630.104187 298.466980,629.613647 
	C297.998596,549.819153 297.996674,470.552460 297.994751,391.285797 
z"/>
<path fill="#865743" opacity="1.000000" stroke="none" 
	d="
M350.993378,391.279175 
	C359.683075,391.233429 368.372772,391.187653 377.528931,391.654816 
	C377.997284,471.454315 377.999146,550.740906 378.001007,630.027466 
	C369.312073,630.062744 360.623138,630.098022 351.467346,629.610107 
	C350.998077,549.817627 350.995728,470.548401 350.993378,391.279175 
z"/>
<path fill="#9A5A3F" opacity="1.000000" stroke="none" 
	d="
M432.468018,630.071289 
	C431.999084,550.737488 431.997040,471.448578 431.991302,391.714539 
	C440.722076,391.440552 449.456573,391.611755 458.595581,392.352753 
	C459.000122,467.612885 459.016571,542.303223 458.957092,616.993530 
	C458.953674,621.278137 458.330780,625.562134 457.996155,629.846436 
	C449.642395,629.936401 441.288635,630.026306 432.468018,630.071289 
z"/>
<path fill="#725548" opacity="1.000000" stroke="none" 
	d="
M297.531250,391.212646 
	C297.996674,470.552460 297.998596,549.819153 298.001038,629.557068 
	C289.645325,630.068359 281.289032,630.108337 272.467163,630.089722 
	C271.998993,550.747864 271.996399,471.464691 271.990082,391.736023 
	C280.346802,391.240143 288.707306,391.189819 297.531250,391.212646 
z"/>
<path fill="#7F5645" opacity="1.000000" stroke="none" 
	d="
M350.529785,391.207214 
	C350.995728,470.548401 350.998077,549.817627 351.000977,629.558228 
	C342.645477,630.065247 334.289429,630.100769 325.467255,630.082886 
	C324.998901,550.744690 324.996704,471.459900 324.990845,391.729828 
	C333.346893,391.234802 341.706543,391.185028 350.529785,391.207214 
z"/>
<path fill="#5F524D" opacity="1.000000" stroke="none" 
	d="
M218.999939,628.992310 
	C209.760132,625.967407 200.520340,622.942566 191.220581,619.262329 
	C191.440414,616.320801 191.963165,614.034851 191.964661,611.748535 
	C192.008255,544.624939 192.011963,477.501373 191.957870,410.377808 
	C191.955627,407.588776 191.335876,404.800293 191.003815,402.011536 
	C200.029602,398.861359 209.055374,395.711212 218.520340,393.043610 
	C218.972992,472.014893 218.986465,550.503601 218.999939,628.992310 
z"/>
<path fill="#8C5842" opacity="1.000000" stroke="none" 
	d="
M378.467590,630.076172 
	C377.999146,550.740906 377.997284,471.454315 377.992035,391.722595 
	C386.014862,391.227905 394.041046,391.178314 402.531189,391.200562 
	C402.996918,470.544098 402.998718,549.815857 403.000977,629.559204 
	C394.979034,630.062134 386.956604,630.093506 378.467590,630.076172 
z"/>
<path fill="#65534B" opacity="1.000000" stroke="none" 
	d="
M219.379105,629.164673 
	C218.986465,550.503601 218.972992,472.014893 218.945404,393.009766 
	C226.976944,392.043030 235.022583,391.592712 243.531311,391.216431 
	C243.996414,470.556305 243.998474,549.822144 244.001007,629.559326 
	C235.920410,629.799561 227.839340,629.568298 219.379105,629.164673 
z"/>
<path fill="#A05B3E" opacity="1.000000" stroke="none" 
	d="
M458.411377,629.887939 
	C458.330780,625.562134 458.953674,621.278137 458.957092,616.993530 
	C459.016571,542.303223 459.000122,467.612885 459.000488,392.452087 
	C467.083130,394.006226 475.165405,396.030792 483.622314,398.588623 
	C483.996826,473.713257 483.996735,548.304626 483.996643,622.895996 
	C475.606628,625.240540 467.216583,627.585022 458.411377,629.887939 
z"/>
<path fill="#A65C3C" opacity="1.000000" stroke="none" 
	d="
M484.358459,622.907349 
	C483.996735,548.304626 483.996826,473.713257 483.994720,398.674133 
	C492.246521,403.555023 500.500519,408.883698 508.843689,414.925781 
	C508.621948,418.256927 508.041992,420.874390 508.039551,423.492401 
	C507.987488,479.856415 507.976471,536.220459 508.042267,592.584473 
	C508.047852,597.366821 508.650360,602.148499 508.975525,606.930481 
	C502.011475,613.960510 493.892517,619.238586 484.358459,622.907349 
z"/>
<path fill="#58514E" opacity="1.000000" stroke="none" 
	d="
M190.664612,402.087250 
	C191.335876,404.800293 191.955627,407.588776 191.957870,410.377808 
	C192.011963,477.501373 192.008255,544.624939 191.964661,611.748535 
	C191.963165,614.034851 191.440414,616.320801 190.978729,619.029114 
	C181.052994,614.770691 173.242065,607.694092 166.470764,599.227417 
	C167.476120,595.901733 168.893707,592.980896 168.902161,590.056030 
	C169.040161,542.304810 169.056702,494.552856 168.948654,446.801422 
	C168.928787,438.022766 168.240677,429.245605 167.861023,420.467773 
	C175.349152,414.366180 182.837280,408.264587 190.664612,402.087250 
z"/>
<path fill="#AC5C3B" opacity="1.000000" stroke="none" 
	d="
M509.276093,606.791748 
	C508.650360,602.148499 508.047852,597.366821 508.042267,592.584473 
	C507.976471,536.220459 507.987488,479.856415 508.039551,423.492401 
	C508.041992,420.874390 508.621948,418.256927 509.017090,415.205750 
	C524.381714,428.424500 534.245361,445.587708 535.657532,465.751373 
	C537.454712,491.411713 536.746399,517.252563 536.959534,543.016846 
	C537.078430,557.394897 534.192505,571.303650 526.873169,583.667297 
	C522.018250,591.868286 515.403625,599.027527 509.276093,606.791748 
z"/>
<path fill="#53504F" opacity="1.000000" stroke="none" 
	d="
M167.557404,420.651917 
	C168.240677,429.245605 168.928787,438.022766 168.948654,446.801422 
	C169.056702,494.552856 169.040161,542.304810 168.902161,590.056030 
	C168.893707,592.980896 167.476120,595.901733 166.349182,598.914673 
	C153.818115,585.550781 146.846283,569.465820 146.213333,551.664062 
	C145.238235,524.239197 145.196899,496.723877 146.250473,469.304230 
	C146.956879,450.919525 154.729050,434.603271 167.557404,420.651917 
z"/>
<path fill="#080101" opacity="1.000000" stroke="none" 
	d="
M626.964783,507.000000 
	C626.921936,519.161133 626.882019,530.822266 626.818665,542.483276 
	C626.817078,542.770081 626.554749,543.055359 626.283997,543.605530 
	C605.499207,543.605530 584.598755,543.605530 563.420776,543.605530 
	C563.420776,496.782593 563.420776,450.208771 563.420776,403.245056 
	C584.455505,403.245056 605.345276,403.245056 626.964783,403.245056 
	C626.964783,437.652588 626.964783,472.076294 626.964783,507.000000 
M569.875854,407.989288 
	C569.282471,409.853149 568.175781,411.715729 568.171143,413.581024 
	C568.071655,453.543610 568.092651,493.506531 568.106323,533.469360 
	C568.106873,535.088562 568.263794,536.707703 568.362732,538.612488 
	C586.248596,538.612488 603.794250,538.612488 621.579956,538.612488 
	C621.579956,494.990875 621.579956,451.666840 621.579956,407.914612 
	C604.387756,407.914612 587.596497,407.914612 569.875854,407.989288 
z"/>
<path fill="#505050" opacity="1.000000" stroke="none" 
	d="
M601.738159,627.034180 
	C587.243286,630.763184 573.167603,621.774902 569.099487,607.511963 
	C564.699585,592.085999 576.484985,577.491699 587.769287,574.648499 
	C602.422485,570.956665 617.374451,578.120056 621.126038,592.288818 
	C625.061157,607.150940 619.837219,621.462219 601.738159,627.034180 
z"/>
<path fill="#505050" opacity="1.000000" stroke="none" 
	d="
M570.340576,407.951965 
	C587.596497,407.914612 604.387756,407.914612 621.579956,407.914612 
	C621.579956,451.666840 621.579956,494.990875 621.579956,538.612488 
	C603.794250,538.612488 586.248596,538.612488 568.362732,538.612488 
	C568.263794,536.707703 568.106873,535.088562 568.106323,533.469360 
	C568.092651,493.506531 568.071655,453.543610 568.171143,413.581024 
	C568.175781,411.715729 569.282471,409.853149 570.340576,407.951965 
z"/>
</svg>